<svg width="20" height="16" viewBox="0 0 20 16" fill="none" xmlns="http://www.w3.org/2000/svg">
<path d="M2.06349 7.27557C3.24675 6.94042 4.28571 6.38183 5.1948 5.61378C6.46465 4.55247 7.46032 3.28169 7.89322 1.67575C7.99423 1.28475 7.96537 0.9077 7.64791 0.642373C7.35931 0.391009 6.99856 0.209469 6.66667 0C6.60895 0.0558585 6.59452 0.0698231 6.59452 0.0837877C6.59452 0.18154 6.58009 0.265328 6.58009 0.36308C6.58009 1.42439 6.2482 2.38795 5.68543 3.29565C4.70418 4.84572 3.29004 5.93496 1.60173 6.70302C1.08225 6.92645 0.533911 7.10799 0 7.33143C0 7.33143 0 7.33143 0 7.34539C0 7.7364 0 8.11345 0 8.50445C0 8.50445 0 8.50445 0 8.51842C0.533911 8.72789 1.08225 8.92339 1.61616 9.16079C3.30447 9.92885 4.70418 11.0181 5.69986 12.5682C6.27706 13.4619 6.59452 14.4394 6.59452 15.5007C6.59452 15.5985 6.59452 15.6823 6.60895 15.78C6.60895 15.794 6.62338 15.794 6.6811 15.8638C6.99856 15.6543 7.35931 15.4728 7.66234 15.2214C7.9798 14.9561 8.00866 14.5791 7.90765 14.1881C7.47475 12.5821 6.49351 11.3113 5.20923 10.25C4.28571 9.48198 3.26118 8.90943 2.07792 8.58824C8.03752 8.58824 14.0115 8.58824 20 8.58824C20 8.56031 20 8.54635 20 8.51842C20 8.12741 20 7.76433 20 7.37332C20 7.34539 20 7.33143 20 7.3035C13.9971 7.27557 8.03752 7.27557 2.06349 7.27557Z" fill="black"/>
</svg>
