<svg width="19" height="17" viewBox="0 0 19 17" fill="none" xmlns="http://www.w3.org/2000/svg">
  <path
    d="M5.45599 16.7244C5.40115 15.0794 4.89851 13.6354 3.94805 12.3925C2.99759 11.1496 1.68158 10.2083 0 9.56854V7.15584C1.68158 6.51611 2.99759 5.5748 3.94805 4.33189C4.89851 3.08899 5.40115 1.64502 5.45599 0L7.53968 0.767676C7.96008 0.9139 8.17027 1.23377 8.17027 1.72727C8.17027 1.8735 8.16113 1.98316 8.14286 2.05628C7.99663 2.75084 7.68591 3.45455 7.21068 4.16739C6.75373 4.88023 6.17797 5.51082 5.48341 6.05916C4.80712 6.58923 4.08514 6.95478 3.31746 7.15584H19V9.56854H3.31746C4.08514 9.7696 4.80712 10.1443 5.48341 10.6926C6.17797 11.2227 6.75373 11.8442 7.21068 12.557C7.68591 13.2698 7.99663 13.9735 8.14286 14.6681C8.16113 14.7412 8.17027 14.8509 8.17027 14.9971C8.17027 15.4906 7.96008 15.8105 7.53968 15.9567L5.45599 16.7244Z"
    fill="black"
    transform="rotate(-90 9.5 8.5)"
  />
</svg>