<svg width="20" height="16" viewBox="0 0 20 16" fill="none" xmlns="http://www.w3.org/2000/svg">
<path d="M17.9365 7.27557C16.7532 6.94042 15.7143 6.38183 14.8052 5.61378C13.5354 4.55247 12.5397 3.28169 12.1068 1.67575C12.0058 1.28475 12.0346 0.9077 12.3521 0.642373C12.6407 0.391009 13.0014 0.209469 13.3333 0C13.3911 0.0558585 13.4055 0.0698231 13.4055 0.0837877C13.4055 0.18154 13.4199 0.265328 13.4199 0.36308C13.4199 1.42439 13.7518 2.38795 14.3146 3.29565C15.2958 4.84572 16.71 5.93496 18.3983 6.70302C18.9177 6.92645 19.4661 7.10799 20 7.33143C20 7.33143 20 7.33143 20 7.34539C20 7.7364 20 8.11345 20 8.50445C20 8.50445 20 8.50445 20 8.51842C19.4661 8.72789 18.9177 8.92339 18.3838 9.16079C16.6955 9.92885 15.2958 11.0181 14.3001 12.5682C13.7229 13.4619 13.4055 14.4394 13.4055 15.5007C13.4055 15.5985 13.4055 15.6823 13.3911 15.78C13.3911 15.794 13.3766 15.794 13.3189 15.8638C13.0014 15.6543 12.6407 15.4728 12.3377 15.2214C12.0202 14.9561 11.9913 14.5791 12.0924 14.1881C12.5253 12.5821 13.5065 11.3113 14.7908 10.25C15.7143 9.48198 16.7388 8.90943 17.9221 8.58824C11.9625 8.58824 5.98846 8.58824 0 8.58824C0 8.56031 0 8.54635 0 8.51842C0 8.12741 0 7.76433 0 7.37332C0 7.34539 0 7.33143 0 7.3035C6.00289 7.27557 11.9625 7.27557 17.9365 7.27557Z" fill="black"/>
</svg>
