<svg width="19" height="17" viewBox="0 0 19 17" fill="none" xmlns="http://www.w3.org/2000/svg">
<path d="M13.544 16.7244C13.5988 15.0794 14.1015 13.6354 15.0519 12.3925C16.0024 11.1496 17.3184 10.2083 19 9.56854V7.15584C17.3184 6.51611 16.0024 5.5748 15.0519 4.33189C14.1015 3.08899 13.5988 1.64502 13.544 0L11.4603 0.767676C11.0399 0.9139 10.8297 1.23377 10.8297 1.72727C10.8297 1.8735 10.8389 1.98316 10.8571 2.05628C11.0034 2.75084 11.3141 3.45455 11.7893 4.16739C12.2463 4.88023 12.822 5.51082 13.5166 6.05916C14.1929 6.58923 14.9149 6.95478 15.6825 7.15584H0V9.56854H15.6825C14.9149 9.7696 14.1929 10.1443 13.5166 10.6926C12.822 11.2227 12.2463 11.8442 11.7893 12.557C11.3141 13.2698 11.0034 13.9735 10.8571 14.6681C10.8389 14.7412 10.8297 14.8509 10.8297 14.9971C10.8297 15.4906 11.0399 15.8105 11.4603 15.9567L13.544 16.7244Z" fill="black"/>
</svg>
