<svg width="13" height="13" viewBox="0 0 13 13" fill="none" xmlns="http://www.w3.org/2000/svg">
<path d="M12.784 11.7695L9.59578 8.5775C11.1988 6.49108 11.0385 3.47737 9.11488 1.56927C8.06402 0.517147 6.71037 0 5.33891 0C3.96744 0 2.61379 0.517147 1.56293 1.56927C-0.520977 3.65569 -0.520977 7.0439 1.56293 9.13032C2.61379 10.1824 3.96744 10.6996 5.33891 10.6996C6.47882 10.6996 7.61874 10.3429 8.56273 9.6118L11.7687 12.786C11.9112 12.9287 12.0893 13 12.2853 13C12.4634 13 12.6593 12.9287 12.8018 12.786C13.069 12.5185 13.069 12.0549 12.784 11.7695ZM5.35672 9.25514C4.30586 9.25514 3.34405 8.84499 2.59598 8.11386C1.08203 6.59808 1.08203 4.11934 2.59598 2.58573C3.32624 1.8546 4.30586 1.44444 5.35672 1.44444C6.40758 1.44444 7.36938 1.8546 8.11745 2.58573C8.86552 3.31687 9.25737 4.29767 9.25737 5.34979C9.25737 6.40192 8.84771 7.36488 8.11745 8.11386C7.38719 8.86283 6.38977 9.25514 5.35672 9.25514Z" fill="black"/>
</svg>
