<svg width="1128" height="153" viewBox="0 0 1128 153" fill="none" xmlns="http://www.w3.org/2000/svg">
<path d="M-11 147.496C32.3435 128.543 46.1932 130.42 54.6172 110.413C56.6603 105.561 52.387 101.94 57.0252 97.7089C61.9414 93.224 77.4929 90.8417 77.4929 90.8417L135.886 81.9143C135.886 81.9143 175.618 76.4206 188.26 74.0171C200.901 71.6136 207.244 68.9962 217.155 63.7163C223.734 60.212 230.399 54.789 235.817 51.012C241.235 47.2351 242.519 46.9232 247.857 47.2351C253.978 47.5927 255.117 50.9029 258.693 53.7589C263.092 57.2729 260.778 61.3588 267.121 63.7163C273.817 66.2055 281.356 66.5707 287.588 63.7163C293.821 60.8619 296.618 53.7589 296.618 53.7589C296.618 53.7589 297.889 51.6987 303.24 46.205C308.591 40.7112 329.126 47.2351 329.126 47.2351C329.126 47.2351 338.336 50.3612 344.176 49.9819C353.192 49.3963 366.449 43.4581 366.449 43.4581L392.937 33.1573L436.883 16.3327C436.883 16.3327 451.33 11.5258 463.37 7.74877C475.41 3.97178 508.857 6.72055 538.017 6.37533C590.667 5.75203 672.864 6.37533 672.864 6.37533H790.252H888.377H959.412C959.412 6.37533 1011.18 6.37533 1034.06 6.37533H1053.32L1117.74 44.8316C1117.74 44.8316 1129.28 52.2624 1137 56.8491" stroke="black" stroke-width="10"/>
</svg>
